<mxfile host="app.diagrams.net" modified="2024-02-07T07:25:38.290Z" agent="Mozilla/5.0 (Windows NT 10.0; Win64; x64) AppleWebKit/537.36 (KHTML, like Gecko) Chrome/121.0.0.0 Safari/537.36 Edg/121.0.0.0" etag="zujKTfwhbOOcdERndSGP" version="22.1.18" type="device">
  <diagram name="Page-1" id="lVhPmbHI_ceuKaDz-TpS">
    <mxGraphModel dx="1471" dy="1672" grid="1" gridSize="10" guides="1" tooltips="1" connect="1" arrows="1" fold="1" page="1" pageScale="1" pageWidth="850" pageHeight="1100" math="0" shadow="0">
      <root>
        <mxCell id="0" />
        <mxCell id="1" parent="0" />
        <mxCell id="KUIU2Cl7BWqN0_f4sA5B-7" value="AWS Account&lt;br&gt;Team A" style="points=[[0,0],[0.25,0],[0.5,0],[0.75,0],[1,0],[1,0.25],[1,0.5],[1,0.75],[1,1],[0.75,1],[0.5,1],[0.25,1],[0,1],[0,0.75],[0,0.5],[0,0.25]];outlineConnect=0;gradientColor=none;html=1;whiteSpace=wrap;fontSize=12;fontStyle=0;container=1;pointerEvents=0;collapsible=0;recursiveResize=0;shape=mxgraph.aws4.group;grIcon=mxgraph.aws4.group_account;strokeColor=#CD2264;fillColor=none;verticalAlign=top;align=left;spacingLeft=30;fontColor=#CD2264;dashed=0;" parent="1" vertex="1">
          <mxGeometry x="20" y="-450" width="120" height="100" as="geometry" />
        </mxCell>
        <mxCell id="KUIU2Cl7BWqN0_f4sA5B-25" value="Team A&amp;nbsp; VPC" style="outlineConnect=0;dashed=0;verticalLabelPosition=bottom;verticalAlign=top;align=center;html=1;shape=mxgraph.aws3.vpc;fillColor=#F58534;gradientColor=none;" parent="KUIU2Cl7BWqN0_f4sA5B-7" vertex="1">
          <mxGeometry x="35" y="30" width="45" height="40" as="geometry" />
        </mxCell>
        <mxCell id="KUIU2Cl7BWqN0_f4sA5B-43" style="edgeStyle=orthogonalEdgeStyle;rounded=0;orthogonalLoop=1;jettySize=auto;html=1;" parent="1" source="KUIU2Cl7BWqN0_f4sA5B-20" edge="1">
          <mxGeometry relative="1" as="geometry">
            <mxPoint x="480" y="-245" as="targetPoint" />
          </mxGeometry>
        </mxCell>
        <mxCell id="KUIU2Cl7BWqN0_f4sA5B-20" value="AWS Account&lt;br&gt;Team B" style="points=[[0,0],[0.25,0],[0.5,0],[0.75,0],[1,0],[1,0.25],[1,0.5],[1,0.75],[1,1],[0.75,1],[0.5,1],[0.25,1],[0,1],[0,0.75],[0,0.5],[0,0.25]];outlineConnect=0;gradientColor=none;html=1;whiteSpace=wrap;fontSize=12;fontStyle=0;container=1;pointerEvents=0;collapsible=0;recursiveResize=0;shape=mxgraph.aws4.group;grIcon=mxgraph.aws4.group_account;strokeColor=#CD2264;fillColor=none;verticalAlign=top;align=left;spacingLeft=30;fontColor=#CD2264;dashed=0;" parent="1" vertex="1">
          <mxGeometry x="20" y="-300" width="120" height="110" as="geometry" />
        </mxCell>
        <mxCell id="KUIU2Cl7BWqN0_f4sA5B-26" value="" style="outlineConnect=0;dashed=0;verticalLabelPosition=bottom;verticalAlign=top;align=center;html=1;shape=mxgraph.aws3.vpc;fillColor=#F58534;gradientColor=none;" parent="KUIU2Cl7BWqN0_f4sA5B-20" vertex="1">
          <mxGeometry x="35" y="40" width="50" height="50" as="geometry" />
        </mxCell>
        <mxCell id="KUIU2Cl7BWqN0_f4sA5B-30" value="Team B VPC" style="text;html=1;align=center;verticalAlign=middle;resizable=0;points=[];autosize=1;strokeColor=none;fillColor=none;" parent="KUIU2Cl7BWqN0_f4sA5B-20" vertex="1">
          <mxGeometry x="15" y="90" width="90" height="30" as="geometry" />
        </mxCell>
        <mxCell id="KUIU2Cl7BWqN0_f4sA5B-21" value="AWS Account&lt;br&gt;Team C" style="points=[[0,0],[0.25,0],[0.5,0],[0.75,0],[1,0],[1,0.25],[1,0.5],[1,0.75],[1,1],[0.75,1],[0.5,1],[0.25,1],[0,1],[0,0.75],[0,0.5],[0,0.25]];outlineConnect=0;gradientColor=none;html=1;whiteSpace=wrap;fontSize=12;fontStyle=0;container=1;pointerEvents=0;collapsible=0;recursiveResize=0;shape=mxgraph.aws4.group;grIcon=mxgraph.aws4.group_account;strokeColor=#CD2264;fillColor=none;verticalAlign=top;align=left;spacingLeft=30;fontColor=#CD2264;dashed=0;" parent="1" vertex="1">
          <mxGeometry x="20" y="-130" width="120" height="110" as="geometry" />
        </mxCell>
        <mxCell id="KUIU2Cl7BWqN0_f4sA5B-24" value="Team C VPC" style="outlineConnect=0;dashed=0;verticalLabelPosition=bottom;verticalAlign=top;align=center;html=1;shape=mxgraph.aws3.vpc;fillColor=#F58534;gradientColor=none;" parent="KUIU2Cl7BWqN0_f4sA5B-21" vertex="1">
          <mxGeometry x="35" y="30" width="50" height="50" as="geometry" />
        </mxCell>
        <mxCell id="KUIU2Cl7BWqN0_f4sA5B-33" style="edgeStyle=orthogonalEdgeStyle;rounded=0;orthogonalLoop=1;jettySize=auto;html=1;exitX=1;exitY=0.5;exitDx=0;exitDy=0;entryX=0;entryY=0.5;entryDx=0;entryDy=0;entryPerimeter=0;" parent="1" source="KUIU2Cl7BWqN0_f4sA5B-7" target="KUIU2Cl7BWqN0_f4sA5B-28" edge="1">
          <mxGeometry relative="1" as="geometry" />
        </mxCell>
        <mxCell id="KUIU2Cl7BWqN0_f4sA5B-36" value="" style="rounded=0;whiteSpace=wrap;html=1;" parent="1" vertex="1">
          <mxGeometry x="452.5" y="-460" width="757.5" height="560" as="geometry" />
        </mxCell>
        <mxCell id="KUIU2Cl7BWqN0_f4sA5B-58" style="edgeStyle=orthogonalEdgeStyle;rounded=0;orthogonalLoop=1;jettySize=auto;html=1;entryX=0;entryY=0.5;entryDx=0;entryDy=0;" parent="1" target="arCp2fNtOiVGv7x5m-Go-11" edge="1">
          <mxGeometry relative="1" as="geometry">
            <mxPoint x="770" y="-245" as="sourcePoint" />
            <mxPoint x="905" y="-368.5" as="targetPoint" />
            <Array as="points">
              <mxPoint x="900" y="-245" />
              <mxPoint x="900" y="-368" />
            </Array>
          </mxGeometry>
        </mxCell>
        <mxCell id="KUIU2Cl7BWqN0_f4sA5B-59" value="ROUTE1" style="edgeLabel;html=1;align=center;verticalAlign=middle;resizable=0;points=[];" parent="KUIU2Cl7BWqN0_f4sA5B-58" vertex="1" connectable="0">
          <mxGeometry x="0.0213" relative="1" as="geometry">
            <mxPoint as="offset" />
          </mxGeometry>
        </mxCell>
        <mxCell id="KUIU2Cl7BWqN0_f4sA5B-60" style="edgeStyle=orthogonalEdgeStyle;rounded=0;orthogonalLoop=1;jettySize=auto;html=1;entryX=0;entryY=0.75;entryDx=0;entryDy=0;" parent="1" source="arCp2fNtOiVGv7x5m-Go-3" target="KUIU2Cl7BWqN0_f4sA5B-49" edge="1">
          <mxGeometry relative="1" as="geometry" />
        </mxCell>
        <mxCell id="KUIU2Cl7BWqN0_f4sA5B-61" value="ROUTE2" style="edgeLabel;html=1;align=center;verticalAlign=middle;resizable=0;points=[];" parent="KUIU2Cl7BWqN0_f4sA5B-60" vertex="1" connectable="0">
          <mxGeometry x="0.3413" y="1" relative="1" as="geometry">
            <mxPoint as="offset" />
          </mxGeometry>
        </mxCell>
        <mxCell id="arCp2fNtOiVGv7x5m-Go-3" value="Amazon API Gateway" style="sketch=0;outlineConnect=0;fontColor=#232F3E;gradientColor=none;strokeColor=#ffffff;fillColor=#232F3E;dashed=0;verticalLabelPosition=middle;verticalAlign=bottom;align=center;html=1;whiteSpace=wrap;fontSize=10;fontStyle=1;spacing=3;shape=mxgraph.aws4.productIcon;prIcon=mxgraph.aws4.api_gateway;" parent="1" vertex="1">
          <mxGeometry x="775" y="-287.5" width="55" height="85" as="geometry" />
        </mxCell>
        <mxCell id="KUIU2Cl7BWqN0_f4sA5B-67" style="edgeStyle=orthogonalEdgeStyle;rounded=0;orthogonalLoop=1;jettySize=auto;html=1;" parent="1" source="arCp2fNtOiVGv7x5m-Go-11" target="KUIU2Cl7BWqN0_f4sA5B-64" edge="1">
          <mxGeometry relative="1" as="geometry" />
        </mxCell>
        <mxCell id="arCp2fNtOiVGv7x5m-Go-11" value="&amp;nbsp; &amp;nbsp; &amp;nbsp; &amp;nbsp; &amp;nbsp; &amp;nbsp; &amp;nbsp; &amp;nbsp; &amp;nbsp; &amp;nbsp; &amp;nbsp; &amp;nbsp; &amp;nbsp; &amp;nbsp; &amp;nbsp; &amp;nbsp; &amp;nbsp; &amp;nbsp; &amp;nbsp; &amp;nbsp; &amp;nbsp; &amp;nbsp; &amp;nbsp; &amp;nbsp; &amp;nbsp; &amp;nbsp; &amp;nbsp; &amp;nbsp; &amp;nbsp; &amp;nbsp; &amp;nbsp; &amp;nbsp; &amp;nbsp; &amp;nbsp; &amp;nbsp; &amp;nbsp; &amp;nbsp; &amp;nbsp; &amp;nbsp; &amp;nbsp; &amp;nbsp; &amp;nbsp; &amp;nbsp; &amp;nbsp; &amp;nbsp; &lt;br&gt;&lt;br&gt;&lt;br&gt;AWS Lambda" style="rounded=0;whiteSpace=wrap;html=1;" parent="1" vertex="1">
          <mxGeometry x="965" y="-410" width="100" height="83" as="geometry" />
        </mxCell>
        <mxCell id="arCp2fNtOiVGv7x5m-Go-6" value="" style="outlineConnect=0;dashed=0;verticalLabelPosition=bottom;verticalAlign=top;align=center;html=1;shape=mxgraph.aws3.lambda_function;fillColor=#F58534;gradientColor=none;" parent="1" vertex="1">
          <mxGeometry x="990" y="-402" width="50" height="52" as="geometry" />
        </mxCell>
        <mxCell id="KUIU2Cl7BWqN0_f4sA5B-72" style="edgeStyle=orthogonalEdgeStyle;rounded=0;orthogonalLoop=1;jettySize=auto;html=1;" parent="1" source="arCp2fNtOiVGv7x5m-Go-9" target="arCp2fNtOiVGv7x5m-Go-3" edge="1">
          <mxGeometry relative="1" as="geometry" />
        </mxCell>
        <mxCell id="arCp2fNtOiVGv7x5m-Go-9" value="&lt;br&gt;&lt;br&gt;&lt;br&gt;&lt;br&gt;AWS IAM service roles for access to CloudWatch, API Gateway and GEN AI service(Bedrock, Codewhisperer)" style="rounded=0;whiteSpace=wrap;html=1;align=left;" parent="1" vertex="1">
          <mxGeometry x="620" y="-170" width="130" height="150" as="geometry" />
        </mxCell>
        <mxCell id="arCp2fNtOiVGv7x5m-Go-14" value="" style="outlineConnect=0;dashed=0;verticalLabelPosition=bottom;verticalAlign=top;align=center;html=1;shape=mxgraph.aws3.iam;fillColor=#759C3E;gradientColor=none;" parent="1" vertex="1">
          <mxGeometry x="660" y="-170" width="40" height="50" as="geometry" />
        </mxCell>
        <mxCell id="KUIU2Cl7BWqN0_f4sA5B-41" style="edgeStyle=orthogonalEdgeStyle;rounded=0;orthogonalLoop=1;jettySize=auto;html=1;" parent="1" source="KUIU2Cl7BWqN0_f4sA5B-38" target="arCp2fNtOiVGv7x5m-Go-3" edge="1">
          <mxGeometry relative="1" as="geometry" />
        </mxCell>
        <mxCell id="KUIU2Cl7BWqN0_f4sA5B-52" value="API KEY" style="edgeLabel;html=1;align=center;verticalAlign=middle;resizable=0;points=[];" parent="KUIU2Cl7BWqN0_f4sA5B-41" vertex="1" connectable="0">
          <mxGeometry x="-0.0667" y="-1" relative="1" as="geometry">
            <mxPoint as="offset" />
          </mxGeometry>
        </mxCell>
        <mxCell id="KUIU2Cl7BWqN0_f4sA5B-38" value="VPC Endpoint" style="sketch=0;outlineConnect=0;fontColor=#232F3E;gradientColor=none;fillColor=#8C4FFF;strokeColor=none;dashed=0;verticalLabelPosition=bottom;verticalAlign=top;align=center;html=1;fontSize=12;fontStyle=0;aspect=fixed;pointerEvents=1;shape=mxgraph.aws4.endpoints;" parent="1" vertex="1">
          <mxGeometry x="620" y="-270" width="50" height="50" as="geometry" />
        </mxCell>
        <mxCell id="KUIU2Cl7BWqN0_f4sA5B-40" style="edgeStyle=orthogonalEdgeStyle;rounded=0;orthogonalLoop=1;jettySize=auto;html=1;" parent="1" source="KUIU2Cl7BWqN0_f4sA5B-28" target="KUIU2Cl7BWqN0_f4sA5B-38" edge="1">
          <mxGeometry relative="1" as="geometry" />
        </mxCell>
        <mxCell id="KUIU2Cl7BWqN0_f4sA5B-28" value="" style="sketch=0;points=[[0,0,0],[0.25,0,0],[0.5,0,0],[0.75,0,0],[1,0,0],[0,1,0],[0.25,1,0],[0.5,1,0],[0.75,1,0],[1,1,0],[0,0.25,0],[0,0.5,0],[0,0.75,0],[1,0.25,0],[1,0.5,0],[1,0.75,0]];outlineConnect=0;fontColor=#232F3E;fillColor=#8C4FFF;strokeColor=#ffffff;dashed=0;verticalLabelPosition=bottom;verticalAlign=top;align=center;html=1;fontSize=12;fontStyle=0;aspect=fixed;shape=mxgraph.aws4.resourceIcon;resIcon=mxgraph.aws4.transit_gateway;" parent="1" vertex="1">
          <mxGeometry x="452.5" y="-270" width="50" height="50" as="geometry" />
        </mxCell>
        <mxCell id="KUIU2Cl7BWqN0_f4sA5B-29" value="Transit Gateway" style="text;html=1;align=center;verticalAlign=middle;resizable=0;points=[];autosize=1;strokeColor=none;fillColor=none;" parent="1" vertex="1">
          <mxGeometry x="440" y="-220" width="110" height="30" as="geometry" />
        </mxCell>
        <mxCell id="KUIU2Cl7BWqN0_f4sA5B-44" style="edgeStyle=orthogonalEdgeStyle;rounded=0;orthogonalLoop=1;jettySize=auto;html=1;entryX=0;entryY=0.5;entryDx=0;entryDy=0;entryPerimeter=0;" parent="1" source="KUIU2Cl7BWqN0_f4sA5B-21" target="KUIU2Cl7BWqN0_f4sA5B-28" edge="1">
          <mxGeometry relative="1" as="geometry" />
        </mxCell>
        <mxCell id="KUIU2Cl7BWqN0_f4sA5B-49" value="&amp;nbsp; &amp;nbsp; &amp;nbsp; &amp;nbsp; &amp;nbsp; &amp;nbsp; &amp;nbsp; &amp;nbsp; &amp;nbsp; &amp;nbsp; &amp;nbsp; &amp;nbsp; &amp;nbsp; &amp;nbsp; &amp;nbsp; &amp;nbsp; &amp;nbsp; &amp;nbsp; &amp;nbsp; &amp;nbsp; &amp;nbsp; &amp;nbsp; &amp;nbsp; &amp;nbsp; &amp;nbsp; &amp;nbsp; &amp;nbsp; &amp;nbsp; &amp;nbsp; &amp;nbsp; &amp;nbsp; &amp;nbsp; &amp;nbsp; &amp;nbsp; &amp;nbsp; &amp;nbsp; &amp;nbsp; &amp;nbsp; &amp;nbsp; &amp;nbsp; &amp;nbsp; &amp;nbsp; &amp;nbsp; &amp;nbsp; &amp;nbsp; &lt;br&gt;&lt;br&gt;&lt;br&gt;AWS Lambda" style="rounded=0;whiteSpace=wrap;html=1;" parent="1" vertex="1">
          <mxGeometry x="970" y="-310" width="100" height="83" as="geometry" />
        </mxCell>
        <mxCell id="KUIU2Cl7BWqN0_f4sA5B-50" value="" style="outlineConnect=0;dashed=0;verticalLabelPosition=bottom;verticalAlign=top;align=center;html=1;shape=mxgraph.aws3.lambda_function;fillColor=#F58534;gradientColor=none;" parent="1" vertex="1">
          <mxGeometry x="990" y="-402" width="50" height="52" as="geometry" />
        </mxCell>
        <mxCell id="KUIU2Cl7BWqN0_f4sA5B-51" value="" style="outlineConnect=0;dashed=0;verticalLabelPosition=bottom;verticalAlign=top;align=center;html=1;shape=mxgraph.aws3.lambda_function;fillColor=#F58534;gradientColor=none;" parent="1" vertex="1">
          <mxGeometry x="995" y="-300" width="50" height="52" as="geometry" />
        </mxCell>
        <mxCell id="yzkhkzCbZ8yv4IG_ZnIH-3" style="edgeStyle=orthogonalEdgeStyle;rounded=0;orthogonalLoop=1;jettySize=auto;html=1;" edge="1" parent="1" source="KUIU2Cl7BWqN0_f4sA5B-55" target="yzkhkzCbZ8yv4IG_ZnIH-1">
          <mxGeometry relative="1" as="geometry" />
        </mxCell>
        <mxCell id="KUIU2Cl7BWqN0_f4sA5B-55" value="&amp;nbsp; &amp;nbsp; &amp;nbsp; &amp;nbsp; &amp;nbsp; &amp;nbsp; &amp;nbsp; &amp;nbsp; &amp;nbsp; &amp;nbsp; &amp;nbsp; &amp;nbsp; &amp;nbsp; &amp;nbsp; &amp;nbsp; &amp;nbsp; &amp;nbsp; &amp;nbsp; &amp;nbsp; &amp;nbsp; &amp;nbsp; &amp;nbsp; &amp;nbsp; &amp;nbsp; &amp;nbsp; &amp;nbsp; &amp;nbsp; &amp;nbsp; &amp;nbsp; &amp;nbsp; &amp;nbsp; &amp;nbsp; &amp;nbsp; &amp;nbsp; &amp;nbsp; &amp;nbsp; &amp;nbsp; &amp;nbsp; &amp;nbsp; &amp;nbsp; &amp;nbsp; &amp;nbsp; &amp;nbsp; &amp;nbsp; &amp;nbsp; &lt;br&gt;&lt;br&gt;&lt;br&gt;AWS Lambda" style="rounded=0;whiteSpace=wrap;html=1;" parent="1" vertex="1">
          <mxGeometry x="970" y="-186.5" width="100" height="83" as="geometry" />
        </mxCell>
        <mxCell id="KUIU2Cl7BWqN0_f4sA5B-56" value="" style="outlineConnect=0;dashed=0;verticalLabelPosition=bottom;verticalAlign=top;align=center;html=1;shape=mxgraph.aws3.lambda_function;fillColor=#F58534;gradientColor=none;" parent="1" vertex="1">
          <mxGeometry x="995" y="-170" width="50" height="52" as="geometry" />
        </mxCell>
        <mxCell id="KUIU2Cl7BWqN0_f4sA5B-62" style="edgeStyle=orthogonalEdgeStyle;rounded=0;orthogonalLoop=1;jettySize=auto;html=1;entryX=0.01;entryY=0.608;entryDx=0;entryDy=0;entryPerimeter=0;" parent="1" source="arCp2fNtOiVGv7x5m-Go-3" target="KUIU2Cl7BWqN0_f4sA5B-55" edge="1">
          <mxGeometry relative="1" as="geometry" />
        </mxCell>
        <mxCell id="KUIU2Cl7BWqN0_f4sA5B-63" value="ROUTE3" style="edgeLabel;html=1;align=center;verticalAlign=middle;resizable=0;points=[];" parent="KUIU2Cl7BWqN0_f4sA5B-62" vertex="1" connectable="0">
          <mxGeometry x="0.112" y="3" relative="1" as="geometry">
            <mxPoint as="offset" />
          </mxGeometry>
        </mxCell>
        <mxCell id="KUIU2Cl7BWqN0_f4sA5B-64" value="Bedrock-model1" style="sketch=0;points=[[0,0,0],[0.25,0,0],[0.5,0,0],[0.75,0,0],[1,0,0],[0,1,0],[0.25,1,0],[0.5,1,0],[0.75,1,0],[1,1,0],[0,0.25,0],[0,0.5,0],[0,0.75,0],[1,0.25,0],[1,0.5,0],[1,0.75,0]];outlineConnect=0;fontColor=#232F3E;fillColor=#01A88D;strokeColor=#ffffff;dashed=0;verticalLabelPosition=bottom;verticalAlign=top;align=center;html=1;fontSize=12;fontStyle=0;aspect=fixed;shape=mxgraph.aws4.resourceIcon;resIcon=mxgraph.aws4.bedrock;" parent="1" vertex="1">
          <mxGeometry x="1124" y="-393.5" width="50" height="50" as="geometry" />
        </mxCell>
        <mxCell id="KUIU2Cl7BWqN0_f4sA5B-65" value="Bedrock-model2" style="sketch=0;points=[[0,0,0],[0.25,0,0],[0.5,0,0],[0.75,0,0],[1,0,0],[0,1,0],[0.25,1,0],[0.5,1,0],[0.75,1,0],[1,1,0],[0,0.25,0],[0,0.5,0],[0,0.75,0],[1,0.25,0],[1,0.5,0],[1,0.75,0]];outlineConnect=0;fontColor=#232F3E;fillColor=#01A88D;strokeColor=#ffffff;dashed=0;verticalLabelPosition=bottom;verticalAlign=top;align=center;html=1;fontSize=12;fontStyle=0;aspect=fixed;shape=mxgraph.aws4.resourceIcon;resIcon=mxgraph.aws4.bedrock;" parent="1" vertex="1">
          <mxGeometry x="1130" y="-293.5" width="50" height="50" as="geometry" />
        </mxCell>
        <mxCell id="KUIU2Cl7BWqN0_f4sA5B-66" value="Bedrock-model3" style="sketch=0;points=[[0,0,0],[0.25,0,0],[0.5,0,0],[0.75,0,0],[1,0,0],[0,1,0],[0.25,1,0],[0.5,1,0],[0.75,1,0],[1,1,0],[0,0.25,0],[0,0.5,0],[0,0.75,0],[1,0.25,0],[1,0.5,0],[1,0.75,0]];outlineConnect=0;fontColor=#232F3E;fillColor=#01A88D;strokeColor=#ffffff;dashed=0;verticalLabelPosition=bottom;verticalAlign=top;align=center;html=1;fontSize=12;fontStyle=0;aspect=fixed;shape=mxgraph.aws4.resourceIcon;resIcon=mxgraph.aws4.bedrock;" parent="1" vertex="1">
          <mxGeometry x="1130" y="-180" width="50" height="50" as="geometry" />
        </mxCell>
        <mxCell id="KUIU2Cl7BWqN0_f4sA5B-68" style="edgeStyle=orthogonalEdgeStyle;rounded=0;orthogonalLoop=1;jettySize=auto;html=1;entryX=0;entryY=0.5;entryDx=0;entryDy=0;entryPerimeter=0;" parent="1" source="KUIU2Cl7BWqN0_f4sA5B-49" target="KUIU2Cl7BWqN0_f4sA5B-65" edge="1">
          <mxGeometry relative="1" as="geometry" />
        </mxCell>
        <mxCell id="KUIU2Cl7BWqN0_f4sA5B-70" style="edgeStyle=orthogonalEdgeStyle;rounded=0;orthogonalLoop=1;jettySize=auto;html=1;" parent="1" source="KUIU2Cl7BWqN0_f4sA5B-55" edge="1">
          <mxGeometry relative="1" as="geometry">
            <mxPoint x="1130" y="-145" as="targetPoint" />
          </mxGeometry>
        </mxCell>
        <mxCell id="KUIU2Cl7BWqN0_f4sA5B-71" value="AWS Target Account" style="rounded=0;whiteSpace=wrap;html=1;" parent="1" vertex="1">
          <mxGeometry x="490" y="-398.5" width="120" height="60" as="geometry" />
        </mxCell>
        <mxCell id="yzkhkzCbZ8yv4IG_ZnIH-1" value="Amazon S3" style="sketch=0;outlineConnect=0;fontColor=#232F3E;gradientColor=none;strokeColor=#ffffff;fillColor=#232F3E;dashed=0;verticalLabelPosition=middle;verticalAlign=bottom;align=center;html=1;whiteSpace=wrap;fontSize=10;fontStyle=1;spacing=3;shape=mxgraph.aws4.productIcon;prIcon=mxgraph.aws4.s3;" vertex="1" parent="1">
          <mxGeometry x="980" y="-50" width="80" height="100" as="geometry" />
        </mxCell>
        <mxCell id="yzkhkzCbZ8yv4IG_ZnIH-2" value="Target destination &lt;br&gt;for storing the responses" style="text;html=1;align=center;verticalAlign=middle;resizable=0;points=[];autosize=1;strokeColor=none;fillColor=none;" vertex="1" parent="1">
          <mxGeometry x="950" y="50" width="160" height="40" as="geometry" />
        </mxCell>
      </root>
    </mxGraphModel>
  </diagram>
</mxfile>
